<?xml version="1.0" encoding="utf-8"?>
<!-- Generator: Adobe Illustrator 25.4.1, SVG Export Plug-In . SVG Version: 6.00 Build 0)  -->
<svg version="1.1" id="Layer_1" xmlns="http://www.w3.org/2000/svg" xmlns:xlink="http://www.w3.org/1999/xlink" x="0px" y="0px"
	 viewBox="0 0 813.5 618.3" style="enable-background:new 0 0 813.5 618.3;" xml:space="preserve">
<style type="text/css">
	.st0{fill:#32A74A;}
</style>
<g>
	<path class="st0" d="M462,618.2c-27.5,1.6-50.4-13.5-53.7-42.2c-0.4-3.1-0.6-6.3-0.6-9.4c0-101.5,0-202.9,0-304.4
		c0-10.1-1.9-19.9-6.7-28.9c-1.5-2.8-3.4-5.3-5.3-8.3c16.2-0.1,30.9,3.3,42.2,15.8c11.2,12.5,12.9,27.8,11.9,43.9c0.4,0,0.8,0,1.2,0
		c0.3-0.8,0.7-1.6,0.9-2.4c3.2-14.1,7.5-27.7,16.1-39.4c10-13.6,23.6-20.5,40.4-21.9c41.9-3.4,68.9,23.1,81.5,50.6
		c9.3,20.3,12.6,41.8,12.4,63.9c-0.3,22.7-4.3,44.6-14.9,64.9c-10.8,20.8-26.2,36.7-49.5,43.2c-29.9,8.3-57.6-2.1-73.3-30.4
		c-6.1-11.1-9.9-23-12.7-35.3c-0.2-0.9-0.5-1.8-0.8-2.7c-0.3,0-0.7,0-1,0c-0.1,1.3-0.3,2.5-0.3,3.8c0,66.7,0,133.4,0,200.1
		c0,12.6,3.7,24.2,9.9,35.1C460.4,615.4,461.1,616.6,462,618.2z M457.3,324c1,13.4,1.9,26.7,3.1,40.1c0.4,4.5,1.3,9,2.2,13.5
		c2.9,14.2,7.1,28,15.5,40.1c10.9,15.6,27.4,22.2,43.8,17.2c11.3-3.4,18.7-11.3,24.1-21.3c10.3-19.3,12.7-40.4,13.7-61.7
		c0.5-11.4-0.2-22.8-0.6-34.2c-0.5-14.1-2.9-27.9-7.1-41.4c-4.4-13.8-10.5-26.7-22.2-36c-18.4-14.5-47.5-12.4-59.6,12.5
		c-2,4.1-3.9,8.3-5.2,12.6C458.9,284.4,457.9,304.1,457.3,324z"/>
	<path class="st0" d="M0,0c13.2,14.2,28.6,24.4,45.9,31.9c11.3,4.9,22.8,9.1,34.4,13.2c17.4,6.3,34.9,12.4,51,21.7
		c35.2,20.5,56.1,51.4,64.6,90.7c2.6,12.2,3.7,24.7,4.5,37.2c0.5,7.3-0.8,14.8-4.2,22.4c-13.2-33.2-33.6-60.9-58.5-85.4
		c-24.9-24.5-52.9-44.3-86.3-55.5c-0.2,0.4-0.5,0.7-0.7,1.1c1.5,0.9,3,1.9,4.5,2.8c28.5,16.6,54.4,36.3,76.1,61.3
		c23.5,27.1,39.7,58,47.8,93.6c-1.5-1.2-2.6-2-3.6-3c-11.4-10.4-25.6-15-40.1-19.2c-19.2-5.6-38.6-10.3-57.2-18.1
		c-26.3-11.1-44-30-53.7-56.8C16.3,115.4,11,92.1,7.2,68.4c-2.3-14.6-4.3-29.3-5.9-44C0.4,16.4,0.4,8.2,0,0z"/>
	<path class="st0" d="M665.7,442.4c-27.6,2.3-48.7-14-53.1-41.2c-0.6-4-0.4-8.1-0.4-12.2c0-69-0.1-138,0-207
		c0-15-3.2-28.9-11.4-41.5c-0.3-0.4-0.4-0.9-0.6-1.3c18-2.4,42.1,6.4,50.4,29.7c2.2,6.3,3.5,13.3,3.6,20c0.4,25.1,0.2,50.2,0.2,75.3
		c0,1.5,0,3,0,4.5c0.3,0.1,0.6,0.2,0.9,0.3c0.5-0.8,1.2-1.7,1.6-2.6c11.7-24.7,32.1-37.8,58.1-43.2c13.5-2.8,27.2-2.8,40.7,1
		c22.7,6.3,35.6,22.2,41.9,44.1c3.4,11.9,4.1,24.2,4.1,36.5c0,32.1,0,64.2,0,96.3c0,12.2,2.1,23.9,8.1,34.8c1.2,2.1,2.5,4.1,3.7,6.2
		c-19.4,2.6-45.6-7.1-52.5-34.9c-1.3-5.3-1.6-11-1.7-16.5c-0.2-30.3,0-60.6-0.1-90.9c0-10.3-1.2-20.4-4.5-30.3
		c-10.4-31.4-43.3-36.6-61.4-28.2c-12.4,5.7-20.8,15.6-27.2,27.3c-7.6,13.7-11.7,28.5-11.7,44.3c0.1,29.6,0.2,59.1-0.1,88.7
		c-0.1,13.7,3.6,26.2,10.3,38c0.4,0.8,0.8,1.5,1.2,2.3C665.9,441.9,665.8,442,665.7,442.4z"/>
	<path class="st0" d="M404.6,441.8c-20.5,1.8-38.8-2.1-55.9-11.8c-17-9.7-28.6-24.2-38.1-40.9c-10.6-18.6-21.9-36.8-32.8-55.2
		c-0.6-1.1-1.4-2.1-2.5-3.8c-4.4,5.2-10.6,8.1-10.4,16.4c0.5,17.5,0.2,35,0.1,52.5c-0.1,15.5,2.6,30.2,12.2,43.7
		c-12.2,0.7-23.3-1.3-33.3-7.8c-12.3-8-18.7-19.7-20.4-34c-0.7-5.6-0.8-11.4-0.8-17.1c0-68.2-0.1-136.5,0-204.7
		c0-13.5-3.5-25.7-10.4-37.1c-0.4-0.7-0.9-1.5-1.5-2.7c9.1-1,17.5,0.3,25.4,3.8c17.7,7.7,27.8,21.7,28.2,40.8c0.9,35,0.4,70,0.5,105
		c0,11,0,22.1,0,33.1c0,1.6,0.2,3.2,0.4,5.6c1.4-1.2,2.3-1.8,3-2.6c25.5-25.8,51-51.6,76.6-77.3c4.9-4.9,8.8-10.1,8.9-17.4
		c0-2.8,1.2-3.9,4.2-3.9c9.4,0.2,18.7,0.1,28.3,0.8c-3,1.9-6.2,3.6-9,5.8c-9.3,7.2-18.9,14.1-27.5,22.1c-13.8,13-26.8,27-40.3,40.4
		c-2.2,2.2-2.5,3.8-0.8,6.5c21.8,36.1,43.4,72.4,65.3,108.5c6.8,11.2,15.6,20.6,26.2,28.2C401.5,439.4,402.7,440.3,404.6,441.8z"/>
	<path class="st0" d="M128.8,226.8c16.7-2.6,41,5.5,49.6,28.7c2.3,6.3,3.7,13.3,3.8,20c0.3,39.4,0.4,78.9,0.1,118.3
		c-0.1,21.2,1.6,32,12.1,49.2c-5.6-0.4-10.6-0.4-15.4-1.3c-22.7-4.1-38.5-22.6-38.6-45.7c-0.2-42.7-0.1-85.5-0.1-128.2
		c0-14-3.2-27.1-10.8-39c-0.3-0.4-0.5-0.9-0.7-1.3C128.7,227.3,128.8,227,128.8,226.8z"/>
</g>
</svg>
